# File created by Blade
# Date/Time:  Wed Jan 21 14:58:10 2015
# Frame Rate: 120.000 fps
#------------------------------------------------------
:FULLY-SPECIFIED
:DEGREES
741
root 18.303443 35.364430 -22.501633 -171.986870 -34.008690 -181.220636
Spine -15.389088 14.467236 -3.962796
Head 13.722852 -17.529429 -3.694490
LeftShoulder -8.069626 -31.439229 15.816926
LeftArm 4.939623 14.198564 -7.853859
LeftForeArm 14.863532 0.000000 -2.239570
LeftHand -9.727280 -0.000000 -5.023144
LeftHandThumb1 -26.253704 0.000000 33.147579
RightShoulder -3.195234 -3.509272 -16.245012
RightArm 7.973407 34.138818 12.263333
RightForeArm -30.096170 0.000000 2.734206
RightHand -8.301047 -0.000000 4.997337
RightHandThumb1 -24.326973 -0.000000 -32.862282
LeftUpLeg -10.695481 -15.774260 7.686521
LeftLeg -0.046069 -0.000000 0.000000
LeftFoot -15.585562 17.142337 -13.404532
LeftToeBase 26.379188 -0.000000 -0.000000
RightUpLeg 4.205691 -22.427264 0.260629
RightLeg -4.368657 -0.000000 0.000000
RightFoot -27.793271 -37.038402 21.946781
RightToeBase 22.140173 -0.000000 -0.000000
742
root 18.266769 35.359224 -22.490851 -171.793515 -35.176880 -181.431164
Spine -15.585670 15.093753 -4.212568
Head 13.600847 -16.890108 -3.671039
LeftShoulder -8.210969 -31.366335 15.835882
LeftArm 4.855141 14.556090 -7.728768
LeftForeArm 14.697980 -0.000000 -2.151422
LeftHand -9.715705 0.000000 -5.014110
LeftHandThumb1 -26.253704 0.000000 33.147579
RightShoulder -2.995184 -3.340064 -16.324632
RightArm 8.072488 34.624059 12.394307
RightForeArm -30.113450 -0.000000 2.570607
RightHand -8.322644 0.000000 5.287162
RightHandThumb1 -24.326973 -0.000000 -32.862282
LeftUpLeg -11.162145 -16.372515 7.625782
LeftLeg 0.185591 -0.000000 -0.000000
LeftFoot -15.411264 16.600329 -13.371475
LeftToeBase 26.543236 -0.000000 -0.000000
RightUpLeg 4.321192 -22.988440 0.183950
RightLeg -4.414889 -0.000000 0.000000
RightFoot -28.072828 -37.456121 22.241793
RightToeBase 22.076768 -0.000000 -0.000000
743
root 18.229499 35.353890 -22.486447 -171.671278 -36.333658 -181.644912
Spine -15.693881 15.737256 -4.454544
Head 13.493194 -16.217608 -3.623275
LeftShoulder -8.350996 -31.248038 15.830161
LeftArm 4.829543 14.654274 -7.597139
LeftForeArm 14.728177 0.000000 -2.131442
LeftHand -9.758293 0.000000 -5.108962
LeftHandThumb1 -26.253704 0.000000 33.147579
RightShoulder -2.773749 -3.117768 -16.394689
RightArm 8.164381 35.222341 12.549578
RightForeArm -30.335345 -0.000000 2.383511
RightHand -8.200425 -0.000000 5.399445
RightHandThumb1 -24.326973 -0.000000 -32.862282
LeftUpLeg -11.509331 -17.001224 7.545633
LeftLeg 0.372046 -0.000000 -0.000000
LeftFoot -15.234346 16.110795 -13.362615
LeftToeBase 26.636542 -0.000000 -0.000000
RightUpLeg 4.552692 -23.588911 0.077689
RightLeg -4.504962 -0.000000 0.000000
RightFoot -28.314817 -37.828302 22.578391
RightToeBase 21.906417 -0.000000 -0.000000
744
root 18.192588 35.346794 -22.479308 -171.511917 -37.495125 -181.877835
Spine -15.820190 16.405243 -4.726713
Head 13.373554 -15.600848 -3.560119
LeftShoulder -8.445204 -31.204938 15.844471
LeftArm 4.707553 14.787685 -7.506313
LeftForeArm 14.584461 0.000000 -1.999095
LeftHand -9.789654 -0.000000 -5.202031
LeftHandThumb1 -26.253704 0.000000 33.147579
RightShoulder -2.591203 -2.947047 -16.484207
RightArm 8.181984 35.498139 12.651969
RightForeArm -30.267377 -0.000000 2.278887
RightHand -8.369120 -0.000000 5.633195
RightHandThumb1 -24.326973 -0.000000 -32.862282
LeftUpLeg -11.887394 -17.657760 7.474239
LeftLeg 0.566101 -0.000000 -0.000000
LeftFoot -15.054159 15.618007 -13.312267
LeftToeBase 26.756391 -0.000000 -0.000000
RightUpLeg 4.757417 -24.155937 -0.023333
RightLeg -4.588946 -0.000000 0.000000
RightFoot -28.577908 -38.266126 22.793839
RightToeBase 21.954334 -0.000000 -0.000000
745
root 18.157317 35.340801 -22.473333 -171.357618 -38.642279 -182.110354
Spine -15.922729 17.085769 -5.010936
Head 13.244890 -15.050700 -3.539599
LeftShoulder -8.620224 -30.977224 15.934807
LeftArm 4.711528 14.758368 -7.520598
LeftForeArm 14.214541 0.000000 -1.997568
LeftHand -9.794796 -0.000000 -5.019643
LeftHandThumb1 -26.253704 0.000000 33.147579
RightShoulder -2.404385 -2.782764 -16.531831
RightArm 8.148200 35.673889 12.699395
RightForeArm -30.359687 0.000000 2.277565
RightHand -8.362714 0.000000 5.869158
RightHandThumb1 -24.326973 -0.000000 -32.862282
LeftUpLeg -12.256376 -18.252060 7.386146
LeftLeg 0.780879 -0.000000 -0.000000
LeftFoot -14.885692 15.118568 -13.321416
LeftToeBase 26.822517 -0.000000 -0.000000
RightUpLeg 4.969221 -24.790818 -0.127156
RightLeg -4.667535 -0.000000 0.000000
RightFoot -28.825074 -38.667926 23.064114
RightToeBase 21.892632 -0.000000 -0.000000
746
root 18.120784 35.333384 -22.467352 -171.214928 -39.786406 -182.337133
Spine -16.028027 17.811717 -5.284689
Head 13.107244 -14.355415 -3.464949
LeftShoulder -8.728455 -30.806142 15.963348
LeftArm 4.676451 14.621039 -7.479016
LeftForeArm 14.195366 0.000000 -1.967362
LeftHand -9.814451 -0.000000 -5.011058
LeftHandThumb1 -26.253704 0.000000 33.147579
RightShoulder -2.194988 -2.573138 -16.577703
RightArm 8.030083 35.675467 12.657252
RightForeArm -30.344302 0.000000 2.204018
RightHand -8.230248 0.000000 6.033302
RightHandThumb1 -24.326973 -0.000000 -32.862282
LeftUpLeg -12.594240 -18.890493 7.316013
LeftLeg 0.968529 -0.000000 -0.000000
LeftFoot -14.727172 14.644528 -13.277294
LeftToeBase 27.004462 -0.000000 -0.000000
RightUpLeg 5.189631 -25.457885 -0.221679
RightLeg -4.748132 -0.000000 0.000000
RightFoot -29.078506 -39.006464 23.331285
RightToeBase 21.647883 -0.000000 -0.000000
747
root 18.084744 35.326048 -22.461656 -171.078401 -40.879104 -182.557629
Spine -16.125183 18.616322 -5.574049
Head 12.975537 -13.682863 -3.384881
LeftShoulder -8.796378 -30.692305 15.978268
LeftArm 4.624642 14.659237 -7.415914
LeftForeArm 14.151816 0.000000 -1.969440
LeftHand -9.761150 -0.000000 -4.927465
LeftHandThumb1 -26.253704 0.000000 33.147579
RightShoulder -2.069872 -2.473925 -16.603116
RightArm 8.049069 35.680649 12.711021
RightForeArm -30.285568 -0.000000 2.161235
RightHand -8.470023 -0.000000 5.723547
RightHandThumb1 -24.326973 -0.000000 -32.862282
LeftUpLeg -12.882995 -19.578279 7.256275
LeftLeg 1.097880 -0.000000 -0.000000
LeftFoot -14.576664 14.302864 -13.271728
LeftToeBase 27.080789 -0.000000 -0.000000
RightUpLeg 5.396871 -26.089564 -0.317956
RightLeg -4.794194 -0.000000 0.000000
RightFoot -29.273769 -39.382520 23.491468
RightToeBase 21.658584 -0.000000 -0.000000
748
root 18.053556 35.318212 -22.458511 -170.992373 -41.954031 -182.741650
Spine -16.169145 19.417416 -5.819634
Head 12.829398 -13.064177 -3.297234
LeftShoulder -8.856876 -30.626664 15.948373
LeftArm 4.534244 14.685333 -7.288913
LeftForeArm 14.069642 -0.000000 -1.940715
LeftHand -9.730142 -0.000000 -4.908399
LeftHandThumb1 -26.253704 0.000000 33.147579
RightShoulder -1.948889 -2.409207 -16.589977
RightArm 8.100501 35.729343 12.713599
RightForeArm -30.394282 -0.000000 2.137332
RightHand -8.383146 -0.000000 5.685137
RightHandThumb1 -24.326973 -0.000000 -32.862282
LeftUpLeg -13.135674 -20.175538 7.208131
LeftLeg 1.237772 -0.000000 -0.000000
LeftFoot -14.433708 13.881290 -13.232602
LeftToeBase 27.157536 -0.000000 -0.000000
RightUpLeg 5.628820 -26.739818 -0.390278
RightLeg -4.826110 -0.000000 0.000000
RightFoot -29.449741 -39.675189 23.643890
RightToeBase 21.785118 -0.000000 -0.000000
749
root 18.020057 35.310471 -22.451559 -170.864437 -42.974913 -182.964175
Spine -16.237977 20.254665 -6.105469
Head 12.705591 -12.433055 -3.226353
LeftShoulder -8.897216 -30.564560 15.947448
LeftArm 4.376680 14.753901 -7.201704
LeftForeArm 14.018578 -0.000000 -1.912242
LeftHand -9.719594 0.000000 -4.827784
LeftHandThumb1 -26.253704 0.000000 33.147579
RightShoulder -1.832604 -2.317040 -16.611023
RightArm 8.196978 35.604258 12.784755
RightForeArm -30.406967 -0.000000 2.104530
RightHand -8.319136 0.000000 5.615690
RightHandThumb1 -24.326973 -0.000000 -32.862282
LeftUpLeg -13.383489 -20.761777 7.132701
LeftLeg 1.364086 -0.000000 -0.000000
LeftFoot -14.274547 13.474047 -13.205845
LeftToeBase 27.243253 -0.000000 -0.000000
RightUpLeg 5.807878 -27.327134 -0.489454
RightLeg -4.804708 -0.000000 0.000000
RightFoot -29.667388 -40.032661 23.749639
RightToeBase 21.815475 -0.000000 -0.000000
750
root 17.985594 35.303119 -22.447577 -170.781727 -43.983584 -183.155357
Spine -16.276303 21.102276 -6.354929
Head 12.577830 -11.860449 -3.186314
LeftShoulder -8.953902 -30.558553 15.946516
LeftArm 4.221193 14.800130 -7.103756
LeftForeArm 14.088194 -0.000000 -1.934361
LeftHand -9.763957 -0.000000 -4.727005
LeftHandThumb1 -26.253704 0.000000 33.147579
RightShoulder -1.730551 -2.269799 -16.600421
RightArm 8.265019 35.414800 12.815909
RightForeArm -30.299771 -0.000000 2.216175
RightHand -8.228078 -0.000000 5.465465
RightHandThumb1 -24.326973 -0.000000 -32.862282
LeftUpLeg -13.572201 -21.417516 7.091617
LeftLeg 1.443877 -0.000000 -0.000000
LeftFoot -14.141997 13.150933 -13.172320
LeftToeBase 27.327467 -0.000000 -0.000000
RightUpLeg 6.019410 -27.921535 -0.583392
RightLeg -4.775816 -0.000000 0.000000
RightFoot -29.880959 -40.352981 23.883185
RightToeBase 21.899656 -0.000000 -0.000000
751
root 17.954509 35.297367 -22.442056 -170.696216 -44.909055 -183.312277
Spine -16.344263 22.020088 -6.596843
Head 12.470355 -11.222964 -3.130838
LeftShoulder -9.021789 -30.476335 15.914409
LeftArm 4.074288 14.794260 -6.989250
LeftForeArm 14.226407 0.000000 -1.945048
LeftHand -9.852917 -0.000000 -4.593108
LeftHandThumb1 -26.253704 0.000000 33.147579
RightShoulder -1.681714 -2.278937 -16.605395
RightArm 8.462844 35.397386 12.958598
RightForeArm -30.561774 -0.000000 2.317703
RightHand -8.288587 -0.000000 5.394132
RightHandThumb1 -24.326973 -0.000000 -32.862282
LeftUpLeg -13.762864 -21.996472 7.072799
LeftLeg 1.507871 -0.000000 -0.000000
LeftFoot -14.009303 12.847581 -13.149054
LeftToeBase 27.449378 -0.000000 -0.000000
RightUpLeg 6.139653 -28.377603 -0.628670
RightLeg -4.667597 -0.000000 0.000000
RightFoot -30.179744 -40.648154 24.167503
RightToeBase 21.637083 -0.000000 -0.000000
752
root 17.924598 35.291183 -22.435834 -170.569450 -45.754570 -183.451318
Spine -16.513312 22.995622 -6.863756
Head 12.391382 -10.558750 -3.046313
LeftShoulder -9.087268 -30.365677 15.899969
LeftArm 3.910339 14.804115 -6.880763
LeftForeArm 14.269530 -0.000000 -1.976952
LeftHand -9.737653 -0.000000 -4.684098
LeftHandThumb1 -26.253704 0.000000 33.147579
RightShoulder -1.542287 -2.144146 -16.637465
RightArm 8.540510 35.086709 13.039565
RightForeArm -30.565135 -0.000000 2.400338
RightHand -8.279873 -0.000000 5.198050
RightHandThumb1 -24.326973 -0.000000 -32.862282
LeftUpLeg -13.990105 -22.494481 7.072408
LeftLeg 1.572977 -0.000000 -0.000000
LeftFoot -13.882764 12.555721 -13.068460
LeftToeBase 27.479949 -0.000000 -0.000000
RightUpLeg 6.176811 -28.772321 -0.641015
RightLeg -4.531704 -0.000000 0.000000
RightFoot -30.437928 -40.948114 24.362846
RightToeBase 21.745412 -0.000000 -0.000000
